<svg width="951" height="761" viewBox="0 0 951 761" fill="none" xmlns="http://www.w3.org/2000/svg">
<g clip-path="url(#clip0_0_54)">
<path d="M758.472 682.653C751.685 682.653 744.899 682.15 738.113 680.893C503.61 638.386 233.669 558.404 -22.1978 455.785C-80.2579 432.394 -108.408 366.748 -85.0334 308.647C-61.6586 250.547 3.94176 222.377 62.0019 245.768C304.045 342.854 558.403 418.309 778.328 458.3C839.907 469.367 880.624 528.222 869.565 589.844C859.763 644.423 812.259 682.653 758.472 682.653Z" fill="#0AA7BD"/>
<path d="M749.926 239.229C747.161 239.229 744.648 239.229 741.883 238.977C360.848 212.316 58.9858 169.81 -180.795 108.943C-241.368 93.6002 -278.064 31.9784 -262.481 -28.6372C-247.149 -89.2529 -185.57 -125.723 -124.997 -110.38C101.463 -52.7829 390.255 -12.2886 757.718 13.3662C820.051 17.642 867.052 71.7182 862.779 134.094C858.506 193.704 808.74 239.229 749.926 239.229Z" fill="#0AA7BD"/>
<path d="M-73.4717 117.746C-109.916 117.746 -143.345 115.734 -171.747 110.955C-233.325 100.643 -274.797 42.0392 -264.492 -19.5826C-254.187 -81.2043 -195.624 -122.705 -134.045 -112.392C-75.2311 -102.332 78.0878 -109.626 331.692 -159.426C526.231 -197.657 714.235 -249.218 789.135 -285.185C845.436 -312.097 913.047 -288.203 939.941 -231.863C966.835 -175.523 942.957 -107.865 886.656 -80.9528C773.804 -26.8766 540.558 29.9663 375.174 62.6636C260.562 85.3001 70.5475 117.746 -73.4717 117.746Z" fill="url(#paint0_linear_0_54)"/>
<path d="M221.856 823C161.785 823 112.019 775.966 109.003 715.351C105.987 652.974 153.993 599.904 216.577 596.886C403.828 587.831 567.954 545.325 704.182 470.373C758.974 440.191 827.591 460.312 857.752 515.143C887.913 569.974 867.806 638.638 813.013 668.82C646.373 760.372 449.321 812.185 227.385 823C225.374 823 223.615 823 221.856 823Z" fill="url(#paint1_linear_0_54)"/>
<path d="M20.0277 464.085C-37.7811 464.085 -87.0442 420.069 -92.5737 361.214C-98.3546 299.09 -52.6103 243.756 9.72262 238.223C318.622 209.801 470.936 150.191 695.385 26.9481C750.177 -2.98248 818.794 16.8874 848.955 71.7181C878.865 126.549 859.009 195.213 804.216 225.395C687.844 289.281 585.548 340.087 464.904 379.827C339.484 421.076 201.497 447.736 30.584 463.582C27.0653 463.833 23.5465 464.085 20.0277 464.085Z" fill="url(#paint2_linear_0_54)"/>
</g>
<defs>
<linearGradient id="paint0_linear_0_54" x1="-265.53" y1="-91.8629" x2="949.949" y2="-81.0876" gradientUnits="userSpaceOnUse">
<stop stop-color="#09A7BC"/>
<stop offset="1" stop-color="#2EC0EE"/>
</linearGradient>
<linearGradient id="paint1_linear_0_54" x1="109.202" y1="637.354" x2="871.153" y2="642.135" gradientUnits="userSpaceOnUse">
<stop stop-color="#09A7BC"/>
<stop offset="1" stop-color="#2EC0EE"/>
</linearGradient>
<linearGradient id="paint2_linear_0_54" x1="-92.6481" y1="235.707" x2="862.085" y2="241.809" gradientUnits="userSpaceOnUse">
<stop stop-color="#09A7BC"/>
<stop offset="1" stop-color="#2EC0EE"/>
</linearGradient>
<clipPath id="clip0_0_54">
<rect width="1217" height="1119" fill="white" transform="translate(-266 -296)"/>
</clipPath>
</defs>
</svg>
